<svg width="28" height="28" viewBox="0 0 28 28" fill="none" xmlns="http://www.w3.org/2000/svg">
<g clip-path="url(#clip0_771_3965)">
<path d="M14.0004 0C10.1951 0 9.72082 0.018375 8.23157 0.081375C6.7362 0.154875 5.7247 0.38675 4.8322 0.73325C3.8981 1.08589 3.05215 1.63801 2.35332 2.35113C1.63822 3.04832 1.08579 3.89474 0.735447 4.83C0.388947 5.7225 0.157072 6.734 0.0835723 8.22937C0.0161973 9.7195 0.00219727 10.1929 0.00219727 13.9983C0.00219727 17.8036 0.0205723 18.2779 0.0835723 19.7671C0.157072 21.2581 0.388947 22.274 0.735447 23.1665C1.08809 24.1006 1.64021 24.9465 2.35332 25.6454C3.05052 26.3605 3.89694 26.9129 4.8322 27.2633C5.7247 27.6054 6.74057 27.8416 8.23157 27.9151C9.7217 27.9825 10.1951 27.9965 14.0004 27.9965C17.8058 27.9965 18.2801 27.9781 19.7693 27.9151C21.2603 27.8416 22.2762 27.6045 23.1687 27.2633C24.1028 26.9106 24.9487 26.3585 25.6476 25.6454C26.3636 24.9489 26.9162 24.1023 27.2654 23.1665C27.6076 22.274 27.8438 21.2581 27.9173 19.7671C27.9847 18.277 27.9987 17.8036 27.9987 13.9983C27.9987 10.1929 27.9803 9.71863 27.9173 8.22937C27.8438 6.73837 27.6067 5.71725 27.2654 4.83C26.9128 3.8959 26.3607 3.04996 25.6476 2.35113C24.9511 1.6351 24.1045 1.08253 23.1687 0.73325C22.2762 0.38675 21.2603 0.154875 19.7693 0.081375C18.2792 0.014 17.8058 0 14.0004 0ZM14.0004 2.52C17.7376 2.52 18.1838 2.53838 19.6608 2.60138C21.0232 2.66525 21.7652 2.89275 22.2578 3.08525C22.8668 3.31006 23.4181 3.66787 23.8713 4.13263C24.3353 4.58397 24.6918 5.13393 24.9143 5.74175C25.1068 6.23438 25.3343 6.97637 25.3982 8.33875C25.4612 9.81575 25.4796 10.2629 25.4796 13.9991C25.4796 17.7354 25.4612 18.1825 25.3929 19.6595C25.3194 21.0219 25.0919 21.7639 24.9003 22.2565C24.6352 22.9136 24.3394 23.373 23.8512 23.87C23.3964 24.3318 22.8455 24.6879 22.2377 24.913C21.7512 25.1055 20.9987 25.333 19.6311 25.3969C18.1462 25.4599 17.7087 25.4783 13.9619 25.4783C10.2152 25.4783 9.77857 25.4599 8.29195 25.3916C6.92957 25.3181 6.17795 25.0906 5.68532 24.899C5.02032 24.6339 4.56445 24.3381 4.0762 23.8499C3.58357 23.3573 3.27032 22.8883 3.02882 22.2364C2.83282 21.7499 2.60882 20.9974 2.5362 19.6297C2.48632 18.1624 2.4627 17.7074 2.4627 13.9781C2.4627 10.2506 2.48632 9.79475 2.5362 8.309C2.60882 6.94138 2.83282 6.19063 3.02882 5.70238C3.27032 5.0365 3.58445 4.5815 4.0762 4.08887C4.56357 3.6015 5.02032 3.2865 5.68532 3.03975C6.17795 2.84812 6.9112 2.62063 8.27882 2.55238C9.7637 2.499 10.2012 2.47975 13.9427 2.47975L14.0004 2.52ZM14.0004 6.81363C13.0566 6.81328 12.122 6.99893 11.2499 7.35995C10.3779 7.72098 9.58553 8.25031 8.91814 8.9177C8.25076 9.58508 7.72143 10.3774 7.3604 11.2495C6.99937 12.1215 6.81373 13.0562 6.81407 14C6.81373 14.9438 6.99937 15.8785 7.3604 16.7505C7.72143 17.6226 8.25076 18.4149 8.91814 19.0823C9.58553 19.7497 10.3779 20.279 11.2499 20.64C12.122 21.0011 13.0566 21.1867 14.0004 21.1864C14.9443 21.1867 15.8789 21.0011 16.751 20.64C17.623 20.279 18.4154 19.7497 19.0828 19.0823C19.7501 18.4149 20.2795 17.6226 20.6405 16.7505C21.0015 15.8785 21.1872 14.9438 21.1868 14C21.1872 13.0562 21.0015 12.1215 20.6405 11.2495C20.2795 10.3774 19.7501 9.58508 19.0828 8.9177C18.4154 8.25031 17.623 7.72098 16.751 7.35995C15.8789 6.99893 14.9443 6.81328 14.0004 6.81363ZM14.0004 18.6664C11.4209 18.6664 9.33407 16.5795 9.33407 14C9.33407 11.4205 11.4209 9.33362 14.0004 9.33362C16.5799 9.33362 18.6668 11.4205 18.6668 14C18.6668 16.5795 16.5799 18.6664 14.0004 18.6664ZM23.1564 6.52663C23.156 6.97258 22.9785 7.40011 22.663 7.71529C22.3475 8.03046 21.9198 8.2075 21.4738 8.2075C21.2533 8.2075 21.035 8.16407 20.8312 8.07968C20.6275 7.9953 20.4424 7.87162 20.2865 7.7157C20.1306 7.55977 20.0069 7.37467 19.9225 7.17095C19.8381 6.96723 19.7947 6.74888 19.7947 6.52838C19.7947 6.30787 19.8381 6.08952 19.9225 5.8858C20.0069 5.68208 20.1306 5.49698 20.2865 5.34105C20.4424 5.18513 20.6275 5.06145 20.8312 4.97707C21.035 4.89268 21.2533 4.84925 21.4738 4.84925C22.3987 4.84925 23.1564 5.60175 23.1564 6.52663Z" fill="#37B048"/>
</g>
<defs>
<clipPath id="clip0_771_3965">
<rect width="28" height="28" fill="white"/>
</clipPath>
</defs>
</svg>
