<svg width="23" height="23" viewBox="0 0 23 23" fill="none" xmlns="http://www.w3.org/2000/svg">
<g clip-path="url(#clip0_112_1100)">
<path d="M8.01234 0.755176C5.71428 1.55239 3.73244 3.06554 2.35792 5.07235C0.983393 7.07916 0.288637 9.47387 0.375697 11.9047C0.462757 14.3356 1.32705 16.6744 2.84161 18.5778C4.35618 20.4811 6.44119 21.8486 8.79039 22.4794C10.6949 22.9708 12.6903 22.9924 14.6051 22.5423C16.3396 22.1527 17.9433 21.3193 19.259 20.1237C20.6283 18.8413 21.6223 17.21 22.134 15.4051C22.69 13.4423 22.7889 11.3782 22.4233 9.37119H11.7283V13.8077H17.9221C17.7983 14.5153 17.533 15.1906 17.1422 15.7933C16.7513 16.396 16.2429 16.9136 15.6473 17.3152C14.891 17.8157 14.0384 18.1523 13.1442 18.3035C12.2475 18.4702 11.3277 18.4702 10.4309 18.3035C9.52199 18.1157 8.66216 17.7406 7.90632 17.202C6.6919 16.3423 5.78004 15.1211 5.30086 13.7124C4.8137 12.2774 4.8137 10.7218 5.30086 9.28674C5.64195 8.28088 6.20582 7.36504 6.95039 6.6076C7.80245 5.72488 8.88119 5.0939 10.0682 4.78391C11.2553 4.47391 12.5048 4.49686 13.6797 4.85025C14.5975 5.13187 15.4368 5.62413 16.1306 6.28775C16.829 5.59296 17.5262 4.89637 18.2222 4.19799C18.5816 3.82244 18.9733 3.46486 19.3273 3.08033C18.2681 2.09478 17.0249 1.32785 15.6688 0.823458C13.1994 -0.0732013 10.4974 -0.0972981 8.01234 0.755176Z" fill="white"/>
<path d="M8.01193 0.75605C10.4968 -0.0970043 13.1988 -0.0735417 15.6684 0.822534C17.0247 1.33035 18.2673 2.10097 19.3251 3.09019C18.9657 3.47472 18.5865 3.8341 18.22 4.20785C17.5228 4.90384 16.8262 5.59743 16.1302 6.28863C15.4364 5.625 14.5971 5.13274 13.6793 4.85113C12.5048 4.4965 11.2553 4.47222 10.068 4.78095C8.88058 5.08968 7.80118 5.71949 6.94818 6.60128C6.20362 7.35873 5.63975 8.27456 5.29865 9.28042L1.57373 6.39644C2.90703 3.75245 5.21555 1.73 8.01193 0.75605Z" fill="#E33629"/>
<path d="M0.586333 9.25388C0.786396 8.2616 1.11879 7.30067 1.57461 6.39685L5.29954 9.28802C4.81238 10.723 4.81238 12.2787 5.29954 13.7137C4.05849 14.6721 2.81685 15.6352 1.57461 16.6031C0.433869 14.3324 0.0859618 11.7453 0.586333 9.25388Z" fill="#F8BD00"/>
<path d="M11.7286 9.37256H22.4236C22.7892 11.3796 22.6903 13.4437 22.1343 15.4065C21.6226 17.2114 20.6286 18.8427 19.2593 20.1251C18.0572 19.1871 16.8497 18.2563 15.6476 17.3183C16.2435 16.9163 16.7522 16.3982 17.1431 15.7948C17.534 15.1915 17.7991 14.5155 17.9224 13.8072H11.7286C11.7268 12.3302 11.7286 10.8514 11.7286 9.37256Z" fill="#587DBD"/>
<path d="M1.57227 16.6031C2.81451 15.6448 4.05615 14.6817 5.29719 13.7137C5.77733 15.1229 6.69049 16.3442 7.90625 17.2033C8.66444 17.7394 9.52612 18.1115 10.4362 18.2958C11.333 18.4626 12.2528 18.4626 13.1495 18.2958C14.0437 18.1446 14.8963 17.808 15.6526 17.3075C16.8547 18.2455 18.0622 19.1762 19.2643 20.1142C17.9488 21.3104 16.3451 22.1445 14.6104 22.5346C12.6957 22.9847 10.7003 22.9632 8.7957 22.4717C7.28939 22.0695 5.88239 21.3605 4.66289 20.3891C3.37225 19.3642 2.31803 18.0728 1.57227 16.6031Z" fill="#319F43"/>
</g>
<defs>
<clipPath id="clip0_112_1100">
<rect width="23" height="23" fill="white"/>
</clipPath>
</defs>
</svg>
