<svg width="45" height="49" viewBox="0 0 45 49" fill="none" xmlns="http://www.w3.org/2000/svg">
<g clip-path="url(#clip0_244_1373)">
<path d="M20.5753 25.8043V36.0901C20.5753 37.5186 20.0753 38.7329 19.0753 39.7329C18.0753 40.7329 16.861 41.2329 15.4325 41.2329H5.14676C3.71819 41.2329 2.50391 40.7329 1.50391 39.7329C0.503906 38.7329 0.00390625 37.5186 0.00390625 36.0901V17.2329C0.00390625 15.3758 0.365513 13.6034 1.08873 11.9159C1.81194 10.2284 2.78962 8.76862 4.02176 7.53648C5.25391 6.30434 6.71373 5.32666 8.40123 4.60345C10.0887 3.88023 11.861 3.51862 13.7182 3.51862H15.4325C15.8968 3.51862 16.2985 3.68827 16.6378 4.02755C16.9771 4.36684 17.1468 4.76862 17.1468 5.23291V8.66148C17.1468 9.12577 16.9771 9.52755 16.6378 9.86684C16.2985 10.2061 15.8968 10.3758 15.4325 10.3758H13.7182C11.8253 10.3758 10.2093 11.0454 8.86998 12.3847C7.53069 13.724 6.86105 15.3401 6.86105 17.2329V18.0901C6.86105 18.8043 7.11105 19.4115 7.61105 19.9115C8.11105 20.4115 8.71819 20.6615 9.43248 20.6615H15.4325C16.861 20.6615 18.0753 21.1615 19.0753 22.1615C20.0753 23.1615 20.5753 24.3758 20.5753 25.8043ZM44.5753 25.8043V36.0901C44.5753 37.5186 44.0753 38.7329 43.0753 39.7329C42.0753 40.7329 40.861 41.2329 39.4325 41.2329H29.1468C27.7182 41.2329 26.5039 40.7329 25.5039 39.7329C24.5039 38.7329 24.0039 37.5186 24.0039 36.0901V17.2329C24.0039 15.3758 24.3655 13.6034 25.0887 11.9159C25.8119 10.2284 26.7896 8.76862 28.0218 7.53648C29.2539 6.30434 30.7137 5.32666 32.4012 4.60345C34.0887 3.88023 35.861 3.51862 37.7182 3.51862H39.4325C39.8968 3.51862 40.2985 3.68827 40.6378 4.02755C40.9771 4.36684 41.1468 4.76862 41.1468 5.23291V8.66148C41.1468 9.12577 40.9771 9.52755 40.6378 9.86684C40.2985 10.2061 39.8968 10.3758 39.4325 10.3758H37.7182C35.8253 10.3758 34.2093 11.0454 32.87 12.3847C31.5307 13.724 30.861 15.3401 30.861 17.2329V18.0901C30.861 18.8043 31.111 19.4115 31.611 19.9115C32.111 20.4115 32.7182 20.6615 33.4325 20.6615H39.4325C40.861 20.6615 42.0753 21.1615 43.0753 22.1615C44.0753 23.1615 44.5753 24.3758 44.5753 25.8043Z" fill="#37B048"/>
</g>
<defs>
<clipPath id="clip0_244_1373">
<rect width="44.58" height="48" fill="white" transform="matrix(1 0 0 -1 0 48.0901)"/>
</clipPath>
</defs>
</svg>
