<svg width="19" height="19" viewBox="0 0 19 19" fill="none" xmlns="http://www.w3.org/2000/svg">
<path d="M5.24083 8.5433C6.38083 10.7837 8.2175 12.6204 10.4579 13.7604L12.1996 12.0187C12.4213 11.7971 12.73 11.7337 13.0071 11.8208C13.8938 12.1137 14.8438 12.2721 15.8333 12.2721C16.0433 12.2721 16.2447 12.3555 16.3931 12.5039C16.5416 12.6524 16.625 12.8538 16.625 13.0637V15.8346C16.625 16.0445 16.5416 16.2459 16.3931 16.3943C16.2447 16.5428 16.0433 16.6262 15.8333 16.6262C12.264 16.6262 8.84078 15.2083 6.31685 12.6844C3.79293 10.1604 2.375 6.73726 2.375 3.16789C2.375 2.95792 2.45841 2.75656 2.60687 2.60809C2.75534 2.45963 2.9567 2.37622 3.16667 2.37622H5.9375C6.14746 2.37622 6.34883 2.45963 6.49729 2.60809C6.64576 2.75656 6.72917 2.95792 6.72917 3.16789C6.72917 4.15747 6.8875 5.10747 7.18042 5.99414C7.2675 6.27122 7.20417 6.57997 6.9825 6.80164L5.24083 8.5433Z" fill="#37B048"/>
</svg>
