<svg width="25" height="25" viewBox="0 0 25 25" fill="none" xmlns="http://www.w3.org/2000/svg">
<g clip-path="url(#clip0_244_1790)">
<path d="M12.4999 0C9.10225 0 8.67881 0.0164063 7.34912 0.0726563C6.01396 0.138281 5.11084 0.345313 4.31396 0.654688C3.47995 0.969547 2.72464 1.46251 2.10068 2.09922C1.4622 2.72172 0.968962 3.47745 0.656152 4.3125C0.346777 5.10938 0.139746 6.0125 0.0741211 7.34766C0.0139648 8.67812 0.00146484 9.10078 0.00146484 12.4984C0.00146484 15.8961 0.0178711 16.3195 0.0741211 17.6492C0.139746 18.9805 0.346777 19.8875 0.656152 20.6844C0.971012 21.5184 1.46398 22.2737 2.10068 22.8977C2.72318 23.5361 3.47891 24.0294 4.31396 24.3422C5.11084 24.6477 6.01787 24.8586 7.34912 24.9242C8.67959 24.9844 9.10225 24.9969 12.4999 24.9969C15.8976 24.9969 16.321 24.9805 17.6507 24.9242C18.9819 24.8586 19.889 24.6469 20.6858 24.3422C21.5199 24.0273 22.2752 23.5344 22.8991 22.8977C23.5384 22.2758 24.0318 21.5199 24.3437 20.6844C24.6491 19.8875 24.8601 18.9805 24.9257 17.6492C24.9858 16.3188 24.9983 15.8961 24.9983 12.4984C24.9983 9.10078 24.9819 8.67734 24.9257 7.34766C24.8601 6.01641 24.6483 5.10469 24.3437 4.3125C24.0288 3.47849 23.5358 2.72317 22.8991 2.09922C22.2773 1.45991 21.5214 0.966547 20.6858 0.654688C19.889 0.345313 18.9819 0.138281 17.6507 0.0726563C16.3202 0.0125 15.8976 0 12.4999 0ZM12.4999 2.25C15.8366 2.25 16.2351 2.26641 17.5538 2.32266C18.7702 2.37969 19.4327 2.58281 19.8726 2.75469C20.4163 2.95541 20.9085 3.27488 21.3132 3.68984C21.7274 4.09283 22.0457 4.58387 22.2444 5.12656C22.4163 5.56641 22.6194 6.22891 22.6765 7.44531C22.7327 8.76406 22.7491 9.16328 22.7491 12.4992C22.7491 15.8352 22.7327 16.2344 22.6718 17.5531C22.6062 18.7695 22.403 19.432 22.2319 19.8719C21.9952 20.4586 21.7312 20.8687 21.2952 21.3125C20.8892 21.7249 20.3973 22.0428 19.8546 22.2437C19.4202 22.4156 18.7483 22.6187 17.5272 22.6758C16.2015 22.732 15.8108 22.7484 12.4655 22.7484C9.12022 22.7484 8.73037 22.732 7.40303 22.6711C6.18662 22.6055 5.51553 22.4023 5.07568 22.2312C4.48193 21.9945 4.0749 21.7305 3.63896 21.2945C3.19912 20.8547 2.91943 20.4359 2.70381 19.8539C2.52881 19.4195 2.32881 18.7477 2.26396 17.5266C2.21943 16.2164 2.19834 15.8102 2.19834 12.4805C2.19834 9.15234 2.21943 8.74531 2.26396 7.41875C2.32881 6.19766 2.52881 5.52734 2.70381 5.09141C2.91943 4.49688 3.1999 4.09062 3.63896 3.65078C4.07412 3.21562 4.48193 2.93438 5.07568 2.71406C5.51553 2.54297 6.17022 2.33984 7.39131 2.27891C8.71709 2.23125 9.10771 2.21406 12.4483 2.21406L12.4999 2.25ZM12.4999 6.08359C11.6572 6.08329 10.8227 6.24904 10.0441 6.57139C9.26547 6.89373 8.55801 7.36635 7.96213 7.96223C7.36625 8.55811 6.89363 9.26557 6.57129 10.0442C6.24894 10.8228 6.08319 11.6573 6.0835 12.5C6.08319 13.3427 6.24894 14.1772 6.57129 14.9558C6.89363 15.7344 7.36625 16.4419 7.96213 17.0378C8.55801 17.6337 9.26547 18.1063 10.0441 18.4286C10.8227 18.751 11.6572 18.9167 12.4999 18.9164C13.3426 18.9167 14.1771 18.751 14.9557 18.4286C15.7343 18.1063 16.4418 17.6337 17.0377 17.0378C17.6336 16.4419 18.1062 15.7344 18.4285 14.9558C18.7509 14.1772 18.9166 13.3427 18.9163 12.5C18.9166 11.6573 18.7509 10.8228 18.4285 10.0442C18.1062 9.26557 17.6336 8.55811 17.0377 7.96223C16.4418 7.36635 15.7343 6.89373 14.9557 6.57139C14.1771 6.24904 13.3426 6.08329 12.4999 6.08359ZM12.4999 16.6664C10.1968 16.6664 8.3335 14.8031 8.3335 12.5C8.3335 10.1969 10.1968 8.33359 12.4999 8.33359C14.803 8.33359 16.6663 10.1969 16.6663 12.5C16.6663 14.8031 14.803 16.6664 12.4999 16.6664ZM20.6749 5.82734C20.6745 6.22552 20.516 6.60724 20.2343 6.88865C19.9526 7.17006 19.5707 7.32813 19.1726 7.32812C18.9757 7.32812 18.7807 7.28935 18.5988 7.214C18.4169 7.13866 18.2517 7.02823 18.1125 6.88901C17.9732 6.7498 17.8628 6.58453 17.7875 6.40263C17.7121 6.22074 17.6733 6.02579 17.6733 5.82891C17.6733 5.63203 17.7121 5.43707 17.7875 5.25518C17.8628 5.07329 17.9732 4.90801 18.1125 4.7688C18.2517 4.62958 18.4169 4.51915 18.5988 4.44381C18.7807 4.36847 18.9757 4.32969 19.1726 4.32969C19.9983 4.32969 20.6749 5.00156 20.6749 5.82734Z" fill="black"/>
</g>
<defs>
<clipPath id="clip0_244_1790">
<rect width="25" height="25" fill="white"/>
</clipPath>
</defs>
</svg>
